# xmcd CD database file
# Copyright (C) 1993-1998 Ti Kan
#
# Track frame offsets:
#	150
#	45945
#	66662
#
# Disc length: 3656 seconds
#
# Revision: 1
# Processed by: cddbd v1.4b41PL1 Copyright (c) Steve Scherf et al.
# Submitted via: CDValet v3.31 - Copyright (c) 1997 Greg Leichner
#
DISCID=230e4603
DTITLE=Non Stop Salsa Mix - Varios
DYEAR=1900
DGENRE=
TTITLE0=Non Stop Salsa Mix 
TTITLE1=Non Stop Salsa Mix (Radio Versión)
TTITLE2=Non Stop Salsa Mix  (Long Versión)
EXTD=
EXTT0=
EXTT1=
EXTT2=
PLAYORDER=
